<svg xmlns="http://www.w3.org/2000/svg" viewBox="0 0 160 160" width="100%" height="100%">
  <defs>
    <radialGradient id="bgGrad2" cx="50%" cy="40%" r="60%">
      <stop offset="0%" stop-color="#FDE047"/>
      <stop offset="70%" stop-color="#F59E0B"/>
      <stop offset="100%" stop-color="#D97706"/>
    </radialGradient>
    <linearGradient id="skinGrad2" x1="0%" y1="0%" x2="0%" y2="100%">
      <stop offset="0%" stop-color="#FCD34D"/>
      <stop offset="10%" stop-color="#FDE68A"/>
      <stop offset="100%" stop-color="#F59E0B"/>
    </linearGradient>
    <linearGradient id="skinBase2" x1="0%" y1="0%" x2="0%" y2="100%">
      <stop offset="0%" stop-color="#FED7AA"/>
      <stop offset="100%" stop-color="#FDBA74"/>
    </linearGradient>
    <linearGradient id="hairGrad2" x1="0%" y1="0%" x2="0%" y2="100%">
      <stop offset="0%" stop-color="#334155"/>
      <stop offset="50%" stop-color="#1E293B"/>
      <stop offset="100%" stop-color="#0F172A"/>
    </linearGradient>
    <linearGradient id="denimGrad2" x1="0%" y1="0%" x2="0%" y2="100%">
      <stop offset="0%" stop-color="#3B82F6"/>
      <stop offset="100%" stop-color="#1D4ED8"/>
    </linearGradient>
  </defs>

  <!-- Background Circle (Yellow) -->
  <circle cx="80" cy="80" r="80" fill="url(#bgGrad2)"/>

  <!-- Body / Denim Shirt -->
  <path d="M34 160 C34 125 54 116 80 116 C106 116 126 125 126 160 Z" fill="url(#denimGrad2)"/>
  <!-- Denim Collar -->
  <path d="M58 116 L74 130 L80 120 L86 130 L102 116 Z" fill="#1E40AF"/>
  <circle cx="80" cy="138" r="2.5" fill="#D97706"/>
  <circle cx="80" cy="152" r="2.5" fill="#D97706"/>

  <!-- Neck -->
  <rect x="70" y="96" width="20" height="24" rx="8" fill="url(#skinBase2)"/>

  <!-- Head Base -->
  <ellipse cx="80" cy="76" rx="33" ry="37" fill="url(#skinBase2)"/>

  <!-- Ears -->
  <ellipse cx="46" cy="76" rx="6" ry="9" fill="url(#skinBase2)"/>
  <ellipse cx="114" cy="76" rx="6" ry="9" fill="url(#skinBase2)"/>

  <!-- Trimmed Stubble / Beard -->
  <path d="M54 78 C54 104 64 113 80 113 C96 113 106 104 106 78 C106 90 98 107 80 107 C62 107 54 90 54 78 Z" fill="#1E293B" opacity="0.35"/>
  <!-- Mustache -->
  <path d="M68 90 Q80 87 92 90 Q80 94 68 90 Z" fill="#1E293B" opacity="0.45"/>

  <!-- Eyes -->
  <ellipse cx="64" cy="70" rx="5.5" ry="6.5" fill="#1C1917"/>
  <ellipse cx="96" cy="70" rx="5.5" ry="6.5" fill="#1C1917"/>
  <circle cx="62" cy="68" r="2" fill="#FFFFFF"/>
  <circle cx="94" cy="68" r="2" fill="#FFFFFF"/>

  <!-- Eyebrows -->
  <path d="M56 60 Q65 57 74 61" stroke="#0F172A" stroke-width="4" stroke-linecap="round" fill="none"/>
  <path d="M86 61 Q95 57 104 60" stroke="#0F172A" stroke-width="4" stroke-linecap="round" fill="none"/>

  <!-- Smile -->
  <path d="M70 96 Q80 102 90 96" stroke="#9A3412" stroke-width="2.5" stroke-linecap="round" fill="none"/>

  <!-- Tortoiseshell Glasses -->
  <rect x="52" y="60" width="24" height="20" rx="6" stroke="#78350F" stroke-width="3.5" fill="none"/>
  <rect x="84" y="60" width="24" height="20" rx="6" stroke="#78350F" stroke-width="3.5" fill="none"/>
  <path d="M76 68 L84 68" stroke="#78350F" stroke-width="3.5"/>

  <!-- Stylish Textured Hair -->
  <path d="M46 64 C42 42 56 30 80 28 C104 30 118 42 114 64 C110 40 98 34 80 34 C62 34 50 40 46 64 Z" fill="url(#hairGrad2)"/>
  <ellipse cx="80" cy="38" rx="34" ry="14" fill="url(#hairGrad2)"/>
  <ellipse cx="74" cy="34" rx="26" ry="10" fill="#475569" opacity="0.4"/>
</svg>